# xmcd CD database file
#
# Track frame offsets:
#	150
#	26341
#	48028
#	80708
#	106786
#	132474
#	160575
#	188066
#
# Disc length: 2864 seconds
#
# Revision: 0
# Processed by: cddbd v1.5.2PL0 Copyright (c) Steve Scherf et al.
# Submitted via: CDex 1.51
#
DISCID=570b2e08
DTITLE=Raivo Tafenau - Take Off
DYEAR=2004
DGENRE=Jazz
TTITLE0=The Other Side
TTITLE1=Influences
TTITLE2=Gate One
TTITLE3=Bye Bye Sweet Lady
TTITLE4=J Jam Blues
TTITLE5=Bright Add 9
TTITLE6=Take Off
TTITLE7=Time Out
EXTD=YEAR: 2004
EXTT0=
EXTT1=
EXTT2=
EXTT3=
EXTT4=
EXTT5=
EXTT6=
EXTT7=
PLAYORDER=
